<svg width="16" height="16" viewBox="0 0 16 16" fill="none" xmlns="http://www.w3.org/2000/svg">
<path d="M13.2801 8.53064L8.15137 13.6556C7.44788 14.3589 6.49385 14.7539 5.49914 14.7537C4.50444 14.7535 3.55054 14.3582 2.84731 13.6547C2.14407 12.9512 1.74909 11.9972 1.74927 11.0025C1.74944 10.0078 2.14476 9.05388 2.84824 8.35064L8.98324 2.23252C9.45226 1.76375 10.0883 1.5005 10.7514 1.50067C11.0797 1.50076 11.4049 1.56552 11.7082 1.69125C12.0115 1.81698 12.2871 2.00122 12.5192 2.23346C12.7513 2.46569 12.9354 2.74137 13.061 3.04475C13.1865 3.34813 13.2511 3.67328 13.251 4.00162C13.2509 4.32996 13.1862 4.65507 13.0605 4.95839C12.9347 5.2617 12.7505 5.53728 12.5182 5.76939L12.5076 5.77939L6.52012 11.5431C6.44912 11.6114 6.36537 11.6651 6.27365 11.701C6.18192 11.7369 6.08402 11.7544 5.98553 11.7525C5.88705 11.7506 5.7899 11.7293 5.69964 11.6898C5.60938 11.6504 5.52778 11.5935 5.45949 11.5225C5.39121 11.4515 5.33757 11.3678 5.30165 11.276C5.26573 11.1843 5.24823 11.0864 5.25014 10.9879C5.25206 10.8894 5.27335 10.7923 5.31281 10.702C5.35227 10.6118 5.40912 10.5302 5.48012 10.4619L11.462 4.70439C11.649 4.51626 11.7536 4.26155 11.7527 3.9963C11.7519 3.73105 11.6458 3.477 11.4576 3.29002C11.3645 3.19744 11.254 3.12411 11.1325 3.07423C11.011 3.02434 10.8809 2.99887 10.7495 2.99928C10.4843 3.0001 10.2302 3.10626 10.0432 3.29439L3.90824 9.41065C3.4863 9.83275 3.24932 10.4052 3.24944 11.002C3.2495 11.2975 3.30776 11.5902 3.42091 11.8632C3.53405 12.1362 3.69986 12.3842 3.90887 12.5931C4.11788 12.8021 4.36599 12.9678 4.63904 13.0808C4.91209 13.1939 5.20473 13.252 5.50025 13.2519C6.09708 13.2518 6.66943 13.0146 7.09137 12.5925L12.2201 7.46752C12.2899 7.39776 12.3727 7.34241 12.4639 7.30466C12.555 7.2669 12.6527 7.24747 12.7514 7.24747C12.85 7.24747 12.9477 7.2669 13.0389 7.30466C13.13 7.34241 13.2129 7.39776 13.2826 7.46752C13.3524 7.53728 13.4077 7.62011 13.4455 7.71126C13.4832 7.80241 13.5027 7.90011 13.5027 7.99877C13.5027 8.09743 13.4832 8.19513 13.4455 8.28628C13.4077 8.37743 13.3524 8.46025 13.2826 8.53002L13.2801 8.53064Z" fill="black"/>
</svg>
